#!OML:ASF H:\LiuWeirdWalks\Patient Classification 1\Patient 1\Session 1\male.ASF
:FULLY-SPECIFIED
:DEGREES
418
root 0.0890532 17.8744 3.62032 4.83721 4.83276 -10.9879
lowerback 8.9704 0.064701 -11.8362
upperback 5.17996 -0.793493 -3.34013
thorax 0.557107 -0.597435 3.193
lowerneck -8.82223 2.01597 7.22094
upperneck 21.1909 -2.48036 18.779
head 8.39478 1.11966 4.93173
rclavicle 3.18055e-014 9.54166e-015
rhumerus -24.3896 10.0521 -48.3416
rradius 88.7159
rwrist -51.1776
rhand 44.5711 -3.34729
rfingers 7.12502
rthumb 66.0583 -8.65755
lclavicle 3.18055e-014 9.54166e-015
lhumerus -16.837 30.2571 65.8389
lradius 82.9347
lwrist 75.1377
lhand -4.54111 16.051
lfingers 7.12502
lthumb 21.2343 44.9079
rfemur -16.3999 -9.83888 34.5283
rtibia 33.3319
rfoot -13.845 -17.4904
rtoes -4.80138
lfemur -15.9359 -1.08536 2.36143
ltibia 33.3735
lfoot -10.9036 21.5569
ltoes -8.32432
419
root 0.100879 17.8575 3.65884 4.3358 4.80821 -10.9159
lowerback 8.76867 0.0962679 -11.8025
upperback 5.09675 -0.726936 -3.30156
thorax 0.569927 -0.562367 3.20859
lowerneck -8.81707 1.88095 7.13945
upperneck 21.3161 -2.67423 18.7549
head 8.44942 1.03185 4.92483
rclavicle -7.95139e-016 1.27222e-014
rhumerus -24.3341 9.1611 -48.4699
rradius 89.5139
rwrist -52.6527
rhand 41.3419 -1.45145
rfingers 7.12502
rthumb 63.4978 -10.9464
lclavicle -7.95139e-016 1.27222e-014
lhumerus -18.1772 29.7632 65.5914
lradius 83.3577
lwrist 74.984
lhand -4.71718 16.0015
lfingers 7.12502
lthumb 21.0651 44.8773
rfemur -15.8106 -9.86457 34.3033
rtibia 33.57
rfoot -14.085 -17.7002
rtoes -4.8724
lfemur -15.3396 -1.11226 2.2288
ltibia 33.5409
lfoot -11.2278 21.46
ltoes -8.21884
420
root 0.115892 17.8404 3.69713 3.83411 4.8113 -10.8154
lowerback 8.56753 0.124815 -11.7468
upperback 5.01315 -0.662924 -3.25279
thorax 0.582014 -0.528163 3.22327
lowerneck -8.80691 1.73405 7.03491
upperneck 21.467 -2.87942 18.7058
head 8.51195 0.936542 4.91285
rclavicle -2.94201e-014 -2.54444e-014
rhumerus -24.3421 8.29413 -48.5842
rradius 90.3105
rwrist -53.7291
rhand 37.887 0.211426
rfingers 7.12502
rthumb 60.6217 -12.8992
lclavicle -2.94201e-014 -2.54444e-014
lhumerus -19.46 29.1651 65.4121
lradius 83.7487
lwrist 74.9168
lhand -4.57476 15.9382
lfingers 7.12502
lthumb 21.2019 44.7988
rfemur -15.2284 -9.89799 34.0366
rtibia 33.8265
rfoot -14.3466 -17.9245
rtoes -4.91576
lfemur -14.7601 -1.13921 2.05349
ltibia 33.7184
lfoot -11.5498 21.3474
ltoes -8.10109
421
root 0.134397 17.8231 3.7356 3.32902 4.83449 -10.6801
lowerback 8.36661 0.149311 -11.6741
upperback 4.93304 -0.602887 -3.1991
thorax 0.598028 -0.495931 3.23422
lowerneck -8.77964 1.58433 6.91726
upperneck 21.6312 -3.08192 18.6374
head 8.57503 0.839858 4.89657
rclavicle 1.43125e-014 -1.27222e-014
rhumerus -24.3893 7.44434 -48.6762
rradius 91.0918
rwrist -54.4682
rhand 34.3956 1.57335
rfingers 7.12502
rthumb 57.6094 -14.4934
lclavicle 1.43125e-014 -1.27222e-014
lhumerus -20.6856 28.4571 65.3003
lradius 84.1302
lwrist 74.827
lhand -4.28255 15.8192
lfingers 7.12502
lthumb 21.4826 44.648
rfemur -14.6606 -9.94032 33.7183
rtibia 34.1312
rfoot -14.6427 -18.1605
rtoes -4.94695
lfemur -14.2032 -1.17164 1.82632
ltibia 33.9386
lfoot -11.8914 21.2317
ltoes -7.97303
422
root 0.156012 17.8053 3.77326 2.82775 4.87329 -10.5276
lowerback 8.15927 0.171105 -11.5785
upperback 4.86256 -0.543192 -3.13361
thorax 0.627624 -0.464556 3.24504
lowerneck -8.73209 1.43243 6.79278
upperneck 21.7584 -3.26959 18.5389
head 8.61926 0.74276 4.86961
rclavicle 1.43125e-014 -6.04305e-014
rhumerus -24.471 6.59144 -48.7391
rradius 91.8594
rwrist -54.9347
rhand 31.0206 2.63072
rfingers 7.12502
rthumb 54.6221 -15.7778
lclavicle 1.43125e-014 -6.04305e-014
lhumerus -21.8206 27.6577 65.2685
lradius 84.507
lwrist 74.6204
lhand -3.94939 15.703
lfingers 7.12502
lthumb 21.8026 44.4949
rfemur -14.1061 -9.95724 33.3756
rtibia 34.4525
rfoot -14.9497 -18.4312
rtoes -4.96041
lfemur -13.6674 -1.19697 1.57104
ltibia 34.174
lfoot -12.2285 21.107
ltoes -7.85135
423
root 0.181659 17.7803 3.80958 2.32605 4.91748 -10.3673
lowerback 7.9567 0.188137 -11.4519
upperback 4.79613 -0.488467 -3.05312
thorax 0.659179 -0.435455 3.25505
lowerneck -8.6866 1.28732 6.7033
upperneck 21.8922 -3.43903 18.366
head 8.66298 0.650821 4.81206
rclavicle 1.74931e-014 5.725e-014
rhumerus -24.5667 5.76105 -48.7678
rradius 92.5982
rwrist -55.1989
rhand 27.8288 3.42283
rfingers 7.12502
rthumb 51.7448 -16.8332
lclavicle 1.74931e-014 5.725e-014
lhumerus -22.8876 26.8057 65.3014
lradius 84.906
lwrist 74.3005
lhand -3.71678 15.6714
lfingers 7.12502
lthumb 22.0259 44.4372
rfemur -13.5762 -9.95146 33.0164
rtibia 34.8088
rfoot -15.2663 -18.7296
rtoes -4.97277
lfemur -13.1547 -1.21364 1.29927
ltibia 34.4363
lfoot -12.5689 20.9785
ltoes -7.73633
424
root 0.210062 17.7612 3.84629 1.82396 4.97445 -10.1865
lowerback 7.75346 0.200552 -11.3031
upperback 4.74298 -0.437595 -2.96016
thorax 0.70558 -0.409128 3.26612
lowerneck -8.67142 1.14136 6.61779
upperneck 22.0357 -3.60231 18.1301
head 8.7134 0.558502 4.73265
rclavicle 2.94201e-014 7.63333e-014
rhumerus -24.6814 4.93877 -48.7536
rradius 93.3016
rwrist -55.3085
rhand 24.9226 4.00983
rfingers 7.12502
rthumb 49.0901 -17.6779
lclavicle 2.94201e-014 7.63333e-014
lhumerus -23.8662 25.914 65.4153
lradius 85.3306
lwrist 73.8361
lhand -3.61106 15.7747
lfingers 7.12502
lthumb 22.1274 44.5285
rfemur -13.0409 -9.92742 32.6297
rtibia 35.1731
rfoot -15.5862 -19.0617
rtoes -4.9893
lfemur -12.6344 -1.22121 0.992359
ltibia 34.6933
lfoot -12.9097 20.8444
ltoes -7.63929
425
root 0.242042 17.7419 3.88266 1.32433 5.04845 -9.95538
lowerback 7.54839 0.20297 -11.1664
upperback 4.70163 -0.399915 -2.86155
thorax 0.767926 -0.390764 3.29061
lowerneck -8.6742 1.00586 6.57875
upperneck 22.2038 -3.74373 17.7964
head 8.77131 0.473794 4.61376
rclavicle 1.19271e-014 -1.90833e-014
rhumerus -24.7954 4.14257 -48.7035
rradius 93.9446
rwrist -55.3011
rhand 22.3493 4.4618
rfingers 7.12502
rthumb 46.717 -18.3281
lclavicle 1.19271e-014 -1.90833e-014
lhumerus -24.7793 25.012 65.5936
lradius 85.7811
lwrist 73.2187
lhand -3.59357 16.0179
lfingers 7.12502
lthumb 22.1442 44.7697
rfemur -12.516 -9.89753 32.1801
rtibia 35.5632
rfoot -15.9093 -19.4154
rtoes -5.00802
lfemur -12.1164 -1.2318 0.617467
ltibia 34.9506
lfoot -13.25 20.7105
ltoes -7.56073
426
root 0.277712 17.7224 3.91838 0.822592 5.13261 -9.6917
lowerback 7.34675 0.200665 -11.0196
upperback 4.67435 -0.367801 -2.75464
thorax 0.844081 -0.376131 3.3185
lowerneck -8.72512 0.868867 6.54666
upperneck 22.3917 -3.88161 17.3912
head 8.84252 0.388134 4.46969
rclavicle -5.56597e-015 -9.54166e-015
rhumerus -24.895 3.35651 -48.6188
rradius 94.5088
rwrist -55.2368
rhand 20.1512 4.79737
rfingers 7.12502
rthumb 44.6759 -18.8287
lclavicle -5.56597e-015 -9.54166e-015
lhumerus -25.6094 24.1048 65.8556
lradius 86.2374
lwrist 72.3974
lhand -3.64255 16.3273
lfingers 7.12502
lthumb 22.0972 45.0847
rfemur -11.9851 -9.85733 31.6866
rtibia 35.9476
rfoot -16.2082 -19.7911
rtoes -5.02225
lfemur -11.5797 -1.23801 0.195611
ltibia 35.1748
lfoot -13.57 20.5726
ltoes -7.49
427
root 0.316666 17.7028 3.95367 0.316484 5.22187 -9.37619
lowerback 7.15574 0.200439 -10.8857
upperback 4.64811 -0.335866 -2.64856
thorax 0.915871 -0.361591 3.35273
lowerneck -8.78835 0.724079 6.50354
upperneck 22.6032 -4.02223 16.9403
head 8.92242 0.297747 4.31174
rclavicle -7.95139e-016 1.90833e-014
rhumerus -24.994 2.58386 -48.5077
rradius 94.9799
rwrist -55.1658
rhand 18.341 5.03641
rfingers 7.12502
rthumb 42.9866 -19.2143
lclavicle -7.95139e-016 1.90833e-014
lhumerus -26.3914 23.1663 66.1785
lradius 86.6937
lwrist 71.3911
lhand -3.68731 16.6434
lfingers 7.12502
lthumb 22.0542 45.4059
rfemur -11.4549 -9.79033 31.1314
rtibia 36.3533
rfoot -16.4972 -20.1992
rtoes -5.02434
lfemur -11.0286 -1.24026 -0.292496
ltibia 35.3892
lfoot -13.8767 20.4355
ltoes -7.44428
428
root 0.358574 17.6829 3.98822 -0.200435 5.31122 -9.04831
lowerback 6.97392 0.201647 -10.7262
upperback 4.61902 -0.302915 -2.53432
thorax 0.979045 -0.345571 3.38143
lowerneck -8.8455 0.564026 6.39633
upperneck 22.841 -4.1757 16.4954
head 9.01054 0.19732 4.16597
rclavicle -1.59028e-015 -2.22639e-014
rhumerus -25.1088 1.84302 -48.3699
rradius 95.3725
rwrist -55.1433
rhand 16.8993 5.20186
rfingers 7.12502
rthumb 41.6363 -19.5089
lclavicle -1.59028e-015 -2.22639e-014
lhumerus -27.1164 22.203 66.5626
lradius 87.1368
lwrist 70.2939
lhand -3.79926 16.9118
lfingers 7.12502
lthumb 21.9467 45.6869
rfemur -10.9167 -9.68458 30.5605
rtibia 36.7694
rfoot -16.7754 -20.6424
rtoes -5.00809
lfemur -10.461 -1.23084 -0.798278
ltibia 35.596
lfoot -14.1724 20.2889
ltoes -7.42269
